<?xml version="1.0" encoding="UTF-8"?>
<svg xmlns="http://www.w3.org/2000/svg" width="320" height="70" viewBox="0 0 320 70" fill="none">
  <path d="M0 14.7227H12.394C20.1838 14.7227 25.1428 18.2694 25.1428 27.1166C25.1428 36.6797 19.1264 40.1739 11.6912 40.1739H7.79636V48.7124H0V14.7227ZM10.9819 33.4942C15.2315 33.4942 16.9983 32.0755 16.9983 27.1166C16.9983 22.5189 15.2315 21.4549 10.9819 21.4549H7.79636V33.4942H10.9819Z" fill="#1e2d4d"></path>
  <path d="M29.0312 39.5105V14.7227H50.995V21.4549H36.7882V28.1806H49.5369V34.9063H36.7882V38.0984C36.7882 40.9292 37.4976 41.9932 40.3284 41.9932H51.665V48.7189H37.4976C31.8293 48.7189 29.0312 45.2116 29.0312 39.5105Z" fill="#1e2d4d"></path>
  <path d="M64.4141 21.4549H55.2188V14.7227H81.419V21.4549H72.2236V48.7189H64.4141V21.4549Z" fill="#1e2d4d"></path>
  <path d="M85.6543 39.5105V14.7227H107.657V21.4549H93.4506V28.1806H106.193V34.9063H93.4506V38.0984C93.4506 40.9292 94.1534 41.9932 96.9909 41.9932H108.321V48.7189H94.1534C88.4917 48.7189 85.6543 45.2116 85.6543 39.5105Z" fill="#1e2d4d"></path>
  <path d="M111.789 14.7227H124.183C131.973 14.7227 136.925 17.2054 136.925 26.0526C136.925 31.4975 134.298 34.2035 131.441 35.9703C134.975 38.8077 138.718 46.1968 139.047 48.3642V48.7189H130.548C130.016 46.7485 127.185 40.3972 124.354 38.6304H119.572V48.7189H111.789V14.7227ZM122.758 32.0755C127.007 32.0755 128.781 30.6633 128.781 26.4138C128.781 22.1643 127.007 21.4549 122.758 21.4549H119.572V32.0755H122.758Z" fill="#1e2d4d"></path>
  <path d="M141.346 47.4757V40.9076H141.74C144.738 41.7425 147.825 42.2187 150.935 42.3263H152.702C155.533 42.3263 157.661 41.4396 157.661 38.6088C157.661 36.4808 155.802 35.5941 153.766 35.0621L148.452 33.6434C144.538 32.691 141.346 29.9455 141.346 24.1065C141.346 17.2035 147.021 14.3398 153.924 14.3398H155.697C157.819 14.3398 162.068 14.8719 164.012 15.5812V22.1493H163.677C161.061 21.5422 158.394 21.1859 155.71 21.0852H154.114C151.631 21.0852 149.516 21.6173 149.516 24.0934C149.516 26.0638 150.935 26.7929 152.702 27.2789L158.016 28.6976C163.152 30.0703 165.805 33.1245 165.805 38.6154C165.805 46.2278 160.314 49.0652 152.702 49.0652H150.935C147.68 48.9864 144.452 48.4514 141.346 47.4757Z" fill="#1e2d4d"></path>
  <path d="M168.932 32.2509V30.8322C168.932 20.389 174.088 14.3398 184.531 14.3398C194.974 14.3398 200.117 20.3628 200.117 30.806V32.2247C200.117 42.6744 194.981 49.052 184.531 49.052C174.081 49.052 168.932 42.7007 168.932 32.2509ZM191.953 32.2509V30.8322C191.953 24.9932 190.357 21.0984 184.511 21.0984C178.666 21.0984 177.076 24.9932 177.076 30.8322V32.2509C177.076 38.0965 178.672 42.346 184.511 42.346C190.35 42.346 191.973 38.0965 191.973 32.2509H191.953Z" fill="#1e2d4d"></path>
  <path d="M204.334 14.7227H211.414L224.163 34.9063V14.7227H231.986V48.7189H224.872L212.124 28.5353V48.7189H204.334V14.7227Z" fill="#1e2d4d"></path>
  <path d="M254.166 55.3003C256.267 54.9336 258.424 55.0526 260.472 55.6484C262.679 56.2964 264.791 57.2351 266.751 58.4398C268.891 59.7378 270.953 61.1612 272.925 62.7025C274.948 64.2591 276.971 65.9077 278.987 67.53L280.846 69.0144C281.47 69.0144 282.101 69.0604 282.738 69.067C283.375 69.0735 284.005 69.067 284.636 69.0275C285.266 68.9881 285.726 68.9619 286.265 68.9159C291.325 68.4598 296.235 66.9544 300.682 64.4956C302.853 63.2983 304.899 61.888 306.79 60.2855C308.851 58.5301 310.718 56.5595 312.36 54.407C313.1 53.435 313.796 52.4235 314.449 51.3726C311.286 52.5498 308.036 53.4765 304.728 54.1443C302.964 54.5118 301.182 54.7793 299.388 54.9456C298.406 55.0148 297.421 55.0148 296.439 54.9456C293.28 54.7189 290.162 54.0967 287.158 53.0934C286.501 52.8833 285.844 52.6599 285.188 52.4366C282.711 51.5631 280.209 50.545 277.726 49.4876C274.606 48.174 271.526 46.7815 268.577 45.5467C265.848 44.3669 263.041 43.3771 260.176 42.5845C257.913 41.9179 255.536 41.7234 253.194 42.0131C252.207 42.1628 251.261 42.512 250.412 43.0393C249.564 43.5666 248.833 44.2611 248.262 45.0804C248.7 46.2451 249.201 47.377 249.766 48.4761C250.982 50.9029 252.458 53.191 254.166 55.3003Z" fill="#1e2d4d"></path>
  <path d="M247.33 21.7088C250.371 17.0389 253.898 15.0554 257.681 14.8649C261.78 14.6547 266.22 16.5463 270.68 19.41C271.875 20.1719 273.071 20.9995 274.266 21.8796C277.366 24.1587 280.453 26.405 283.52 28.4871C287.572 31.3386 291.849 33.8559 296.309 36.0141C300.479 37.9845 304.552 39.1864 308.466 39.3703C312.428 39.603 316.36 38.5527 319.678 36.3753C320.338 31.4285 319.984 26.3991 318.638 21.5934C317.292 16.7877 314.982 12.3062 311.849 8.42165C309.747 9.75931 307.318 10.4932 304.827 10.5431C302.274 10.5481 299.737 10.14 297.313 9.33461C294.622 8.45592 291.978 7.4387 289.392 6.28703C286.693 5.13105 283.941 3.91596 281.143 2.89135C278.36 1.86294 275.485 1.10199 272.558 0.618799C269.619 0.101246 266.633 -0.0925748 263.652 0.0408101C255.668 4.94043 249.836 12.6825 247.33 21.7088Z" fill="#1e2d4d"></path>
</svg>
